<svg xmlns="http://www.w3.org/2000/svg" viewBox="0 0 122 36" fill="none">
  <g transform="translate(2, 0)">
    <rect width="36" height="36" rx="8" fill="#0f172a" />
    <path d="M 18 11.5 L 18 6.5 M 21.8 12.6 Q 25.1 11.3 23.7 8.0 M 25.1 15.6 Q 28.6 15.6 28.6 12.1 M 27.2 20.2 Q 30.5 21.5 31.8 18.3 M 28 25.5 Q 30.5 28.0 33 25.5 M 14.2 12.6 Q 10.9 11.3 12.3 8.0 M 10.9 15.6 Q 7.4 15.6 7.4 12.1 M 8.8 20.2 Q 5.5 21.5 4.2 18.3 M 8 25.5 Q 5.5 28.0 3 25.5"
      stroke="#f59e0b" stroke-width="1.2" stroke-linecap="round" opacity="0.8" />
    <g fill="#f59e0b">
      <circle cx="18" cy="6.5" r="1.2" />
      <circle cx="12.3" cy="8.0" r="1.2" />
      <circle cx="23.7" cy="8.0" r="1.2" />
      <circle cx="7.4" cy="12.1" r="1.2" />
      <circle cx="28.6" cy="12.1" r="1.2" />
      <circle cx="4.2" cy="18.3" r="1.2" />
      <circle cx="31.8" cy="18.3" r="1.2" />
      <circle cx="3" cy="25.5" r="1.2" />
      <circle cx="33" cy="25.5" r="1.2" />
    </g>
    <path d="M 8 25.5 A 10 14 0 0 1 28 25.5" stroke="#f59e0b" stroke-width="1.5" fill="none" />
    <rect x="6.5" y="25.5" width="3" height="4" rx="1.5" fill="#f59e0b" />
    <rect x="26.5" y="25.5" width="3" height="4" rx="1.5" fill="#f59e0b" />
    <g>
      <rect x="11.5" y="18.5" width="3" height="11" rx="1.5" fill="#f59e0b" />
      <circle cx="13" cy="18.5" r="2.2" fill="#0f172a" />
      <circle cx="13" cy="18.5" r="1.4" fill="#ffffff" />
      <circle cx="13" cy="18.5" r="0.6" fill="#0f172a" />
    </g>
    <g>
      <rect x="21.5" y="18.5" width="3" height="11" rx="1.5" fill="#f59e0b" />
      <circle cx="23" cy="18.5" r="2.2" fill="#0f172a" />
      <circle cx="23" cy="18.5" r="1.4" fill="#ffffff" />
      <circle cx="23" cy="18.5" r="0.6" fill="#0f172a" />
    </g>
    <g>
      <rect x="16.5" y="14.5" width="3" height="15" rx="1.5" fill="#f59e0b" />
      <circle cx="18" cy="27.5" r="2.2" fill="#0f172a" />
      <circle cx="18" cy="27.5" r="0.9" fill="#ffffff" />
    </g>
  </g>
  <path fill="#ffffff" d="M43.346019939661886 24.324332259615588V11.675667740384412H45.93517609963874V22.176606002323314H51.393626627065345V24.324332259615588Z"/>
  <path fill="#ffffff" d="M55.24391406286568 24.511091064597526Q53.88566820845159 24.511091064597526 52.98583032990226 23.793767472735084Q52.08599245135293 23.076443880872645 52.08599245135293 21.667263806918033Q52.08599245135293 20.60613423315703 52.59533464675821 20.003412635260776Q53.10467684216349 19.400691037364524 53.919624354811944 19.120552829891622Q54.734571867460396 18.840414622418717 55.66836589237008 18.755524256517834Q56.89078716134276 18.636677744256602 57.429840984813346 18.505097677110236Q57.968894808283935 18.373517609963873 57.968894808283935 17.906620597509033V17.86417541455859Q57.968894808283935 17.26145381666234 57.582643643434935 16.930381389648907Q57.19639247858593 16.599308962635472 56.483313405018535 16.599308962635472Q55.744767221680874 16.599308962635472 55.29484828240621 16.917647834763777Q54.84492934313154 17.235986706892078 54.69212668450996 17.69439468275683L52.35764162223575 17.30389899961278Q52.72267019560953 16.072988694050014 53.813511397435846 15.393865766842971Q54.904352599262154 14.71474283963593 56.49180244160862 14.71474283963593Q57.51048683241918 14.71474283963593 58.43154730244373 15.037326230059275Q59.35260777246829 15.35990962048262 59.934106778889316 16.068744175754972Q60.51560578531035 16.777578731027322 60.51560578531035 17.932087707279294V24.324332259615588H58.10471939372535V23.008531588151943H58.019829027824464Q57.671778527630856 23.67067644217881 56.984166563833725 24.09088375338817Q56.29655460003659 24.511091064597526 55.24391406286568 24.511091064597526ZM55.96548217302316 22.71990434408895Q56.856831014982404 22.71990434408895 57.42135194822326 22.20207311209358Q57.98587288146412 21.68424188009821 57.98587288146412 20.928717623580372V19.90154419617972Q57.83307022284253 20.011901671850865 57.48926424094397 20.0925475194567Q57.1454582590454 20.173193367062538 56.76345161249144 20.2368611414882Q56.381444965937476 20.30052891591386 56.101306758464574 20.33448506227421Q55.396716721487266 20.436353501355267 54.963775855392775 20.73346978200835Q54.530834989298285 21.030586062661428 54.530834989298285 21.599351514197327Q54.530834989298285 22.15113889255305 54.93406422732747 22.435521618320998Q55.337293465356645 22.71990434408895 55.96548217302316 22.71990434408895Z"/>
  <path fill="#ffffff" d="M64.84127927015561 24.324332259615588 61.343796195039346 14.833589351897162H64.05179886727743L65.64773774621398 19.757230574148224Q65.842985587786 20.393908318404826 66.00852180129272 21.03907509925152Q66.17405801479944 21.68424188009821 66.32686067342102 22.346386734125076Q66.47117429545251 21.68424188009821 66.62822147236915 21.04331961754656Q66.78526864928577 20.402397354994914 66.98900552744789 19.757230574148224L68.56796633320427 14.833589351897162H71.242012859082L67.73604074737564 24.324332259615588Z"/>
  <path fill="#f59e0b" d="M72.38429762264424 24.324332259615588V11.675667740384412H77.04477871060257Q78.38604649183648 11.675667740384412 79.26890629720563 12.117097643068991Q80.1517661025748 12.558527545753568 80.58895148696433 13.309807283976358Q81.02613687135387 14.06108702219915 81.02613687135387 14.994881047108834Q81.02613687135387 16.183346169721162 80.39794816368735 16.815779395682718Q79.76975945602084 17.448212621644277 78.88689965065169 17.66892757298657V17.79626312183789Q79.52357739490829 17.83021926819824 80.12629899280454 18.19949235986707Q80.72902059070078 18.5687654515359 81.12376079213988 19.256377415333027Q81.51850099357897 19.94398937913016 81.51850099357897 20.911739550400195Q81.51850099357897 21.88797875826032 81.06433753600926 22.66048108795833Q80.61017407843956 23.432983417656345 79.66364649864474 23.878657838635966Q78.71711891884992 24.324332259615588 77.24851558876469 24.324332259615588ZM74.31979796518432 22.66048108795833H77.05326774719266Q78.42000263819683 22.66048108795833 79.00999068120795 22.134160819372873Q79.59997872421907 21.607840550787415 79.59997872421907 20.818360147909228Q79.59997872421907 19.927011305949986 78.93358935189715 19.286089043398338Q78.26719997957525 18.64516678084669 77.12966907650346 18.64516678084669H74.31979796518432ZM74.31979796518432 17.151096340991195H76.85801990562064Q77.81728104030059 17.151096340991195 78.47093685773737 16.60779799922556Q79.12459267517414 16.064499657459926 79.12459267517414 15.156172742320507Q79.12459267517414 14.375181376032408 78.57704981511347 13.853105625741993Q78.02950695505278 13.331029875451579 76.90895412516116 13.331029875451579H74.31979796518432Z"/>
  <path fill="#f59e0b" d="M87.22788744260859 24.519580101187614Q85.82719640524405 24.519580101187614 84.80851201443349 23.916858503291362Q83.78982762362293 23.31413690539511 83.24228476356225 22.219051185273756Q82.69474190350157 21.1239654651524 82.69474190350157 19.64687309847708Q82.69474190350157 18.186758804981935 83.23379572697216 17.074695011680404Q83.77284955044276 15.96263121837887 84.75757779489297 15.3386870290074Q85.74230603934318 14.71474283963593 87.06659574739692 14.71474283963593Q88.1447033943381 14.71474283963593 89.11669808390317 15.194373406975902Q90.08869277346825 15.674003974315877 90.69565888965954 16.72239999319175Q91.30262500585084 17.770796012067624 91.30262500585084 19.485581403265407V20.147726257292273H84.57081898991103Q84.62175320945155 21.522950184886536 85.35181035619912 22.248762813339063Q86.0818675029467 22.97457544179159 87.24486551578876 22.97457544179159Q88.02585688207687 22.97457544179159 88.59037781531771 22.63501397818807Q89.15489874855857 22.295452514584547 89.40108080967113 21.63330766055768L91.15831138381935 22.049270453471994Q90.81874992021582 23.161334246773528 89.78308745622508 23.84045717398057Q88.74742499223434 24.519580101187614 87.22788744260859 24.519580101187614ZM84.57930802650111 18.755524256517834H89.45201502921165Q89.35014659013059 17.634971426626215 88.75166951052938 16.947359462829084Q88.15319243092819 16.259747499031953 87.075084783987 16.259747499031953Q85.95453195409537 16.259747499031953 85.30512065495364 16.994049164074568Q84.65570935581191 17.728350829117183 84.57930802650111 18.755524256517834Z"/>
  <path fill="#f59e0b" d="M94.69450446578642 18.704590036977308V24.324332259615588H92.82691641596706V14.833589351897162H94.60961409988555L94.61810313647564 16.65873221876609Q95.05953303916021 15.657025901135702 95.80232374079291 15.185884370385816Q96.54511444242561 14.71474283963593 97.54682076005601 14.71474283963593Q98.99844601696105 14.71474283963593 99.88555034062526 15.627314273070393Q100.77265466428946 16.539885706504858 100.77265466428946 18.297116280653082V24.324332259615588H98.90506661447009V18.526320268585458Q98.90506661447009 17.499146841184807 98.37025730929454 16.92189235305882Q97.835448004119 16.34463786493283 96.90165397920931 16.34463786493283Q95.95088188111946 16.34463786493283 95.32269317345293 16.960093017714215Q94.69450446578642 17.575548170495598 94.69450446578642 18.704590036977308Z"/>
  <path fill="#f59e0b" d="M106.7536902842019 24.519580101187614Q105.41242250296798 24.519580101187614 104.41920522192768 23.908369466701274Q103.42598794088738 23.297158832214937 102.87420056253166 22.197828593798533Q102.32241318417593 21.098498355382134 102.32241318417593 19.629895025296904Q102.32241318417593 18.152802658621585 102.87420056253166 17.044983383615097Q103.42598794088738 15.937164108608606 104.41920522192768 15.325953474122269Q105.41242250296798 14.71474283963593 106.7536902842019 14.71474283963593Q108.23078265087722 14.71474283963593 109.30464577952336 15.457533541268635Q110.37850890816948 16.20032424290134 110.72655940836309 17.51612491436498L108.9523507610347 17.940576743869382Q108.75710291946267 17.202030560531725 108.19258198622181 16.747867102962015Q107.62806105298095 16.293703645392306 106.76217932079197 16.293703645392306Q105.90478662519308 16.293703645392306 105.34026569195223 16.743622584666973Q104.77574475871138 17.193541523941636 104.49985106953352 17.953310298754516Q104.22395738035566 18.713079073567396 104.22395738035566 19.629895025296904Q104.22395738035566 20.538221940436323 104.49985106953352 21.289501678659114Q104.77574475871138 22.040781416881906 105.34026569195223 22.490700356156573Q105.90478662519308 22.940619295431237 106.76217932079197 22.940619295431237Q107.64503912616114 22.940619295431237 108.22229361428712 22.46947776468135Q108.79954810241311 21.998336233931465 108.98630690739505 21.225833904233454L110.75202651813336 21.650285733737856Q110.40397601793975 22.991553514971766 109.32586837099856 23.755566808079692Q108.24776072405739 24.519580101187614 106.7536902842019 24.519580101187614Z"/>
  <path fill="#f59e0b" d="M114.14390597806893 18.704590036977308V24.324332259615588H112.27631792824957V11.675667740384412H114.12692790488876V16.539885706504858Q114.57684684416343 15.597602645005086 115.29841495432092 15.156172742320507Q116.0199830644784 14.71474283963593 116.99622227233851 14.71474283963593Q118.44784752924357 14.71474283963593 119.33919637120282 15.627314273070393Q120.23054521316206 16.539885706504858 120.23054521316206 18.297116280653082V24.324332259615588H118.3544681267526V18.526320268585458Q118.3544681267526 17.499146841184807 117.81965882157705 16.92189235305882Q117.28484951640151 16.34463786493283 116.35105549149182 16.34463786493283Q115.40028339340196 16.34463786493283 114.77209468573545 16.960093017714215Q114.14390597806893 17.575548170495598 114.14390597806893 18.704590036977308Z"/>
</svg>